<svg width="106" height="30" viewBox="0 0 106 30" fill="none" xmlns="http://www.w3.org/2000/svg">
<path d="M2.85 23V0.019999H2.88L14.07 15.89L25.53 0.019999H25.59V23H21.24V12.47L14.04 22.7H13.98L7.05 13.13V23H2.85ZM31.2073 9.89H35.4073V23H31.2073V9.89ZM31.1173 5.24C31.1173 4.62 31.3573 4.11 31.8373 3.71C32.3373 3.31 32.8673 3.11 33.4273 3.11C33.9873 3.11 34.4973 3.31 34.9573 3.71C35.4373 4.11 35.6773 4.62 35.6773 5.24C35.6773 5.86 35.4373 6.37 34.9573 6.77C34.4973 7.15 33.9873 7.34 33.4273 7.34C32.8673 7.34 32.3373 7.15 31.8373 6.77C31.3573 6.37 31.1173 5.86 31.1173 5.24Z" fill="#F087B1"/>
<path d="M44.1127 9.89L44.4427 12.89C44.8227 12.13 45.3427 11.48 46.0027 10.94C46.6627 10.38 47.3127 9.96 47.9527 9.68C48.5927 9.38 49.0827 9.23 49.4227 9.23L49.2127 13.43C48.2327 13.31 47.3927 13.47 46.6927 13.91C45.9927 14.35 45.4527 14.93 45.0727 15.65C44.6927 16.37 44.5027 17.11 44.5027 17.87V23H40.3327V9.89H44.1127ZM58.3179 23.36C57.0979 23.36 55.9879 23.12 54.9879 22.64C54.0079 22.14 53.2279 21.38 52.6479 20.36C52.0679 19.34 51.7779 18.04 51.7779 16.46C51.7779 14.98 52.0779 13.7 52.6779 12.62C53.2779 11.54 54.0679 10.71 55.0479 10.13C56.0279 9.53 57.0679 9.23 58.1679 9.23C59.4679 9.23 60.4479 9.44 61.1079 9.86C61.7879 10.28 62.3279 10.74 62.7279 11.24L62.9979 9.89H66.8979V23H62.6979V21.38C62.4979 21.58 62.1979 21.84 61.7979 22.16C61.4179 22.48 60.9379 22.76 60.3579 23C59.7779 23.24 59.0979 23.36 58.3179 23.36ZM59.5179 19.94C60.9779 19.94 62.0379 19.28 62.6979 17.96V14.75C62.4579 14.11 62.0379 13.6 61.4379 13.22C60.8579 12.84 60.1679 12.65 59.3679 12.65C58.4679 12.65 57.6879 12.99 57.0279 13.67C56.3679 14.33 56.0379 15.19 56.0379 16.25C56.0379 16.95 56.1979 17.58 56.5179 18.14C56.8379 18.7 57.2579 19.14 57.7779 19.46C58.3179 19.78 58.8979 19.94 59.5179 19.94ZM78.6056 29.6C77.4256 29.6 76.4256 29.46 75.6056 29.18C74.8056 28.9 74.1256 28.56 73.5656 28.16C73.0056 27.76 72.5056 27.38 72.0656 27.02L74.5256 24.14C74.9856 24.56 75.5156 24.96 76.1156 25.34C76.7356 25.74 77.5456 25.94 78.5456 25.94C79.5456 25.94 80.4156 25.68 81.1556 25.16C81.9156 24.66 82.2956 23.92 82.2956 22.94V21.08C81.9156 21.7 81.3256 22.24 80.5256 22.7C79.7256 23.14 78.6856 23.36 77.4056 23.36C76.2256 23.36 75.1256 23.06 74.1056 22.46C73.1056 21.84 72.3056 21.01 71.7056 19.97C71.1056 18.91 70.8056 17.71 70.8056 16.37C70.8056 14.99 71.1256 13.77 71.7656 12.71C72.4056 11.63 73.2356 10.78 74.2556 10.16C75.2756 9.54 76.3556 9.23 77.4956 9.23C78.6356 9.23 79.6156 9.4 80.4356 9.74C81.2756 10.06 81.8956 10.45 82.2956 10.91L82.6256 9.89H86.4956V23C86.4956 24.28 86.1356 25.41 85.4156 26.39C84.6956 27.39 83.7356 28.17 82.5356 28.73C81.3556 29.31 80.0456 29.6 78.6056 29.6ZM75.0356 16.25C75.0356 17.29 75.3856 18.17 76.0856 18.89C76.7856 19.59 77.6456 19.94 78.6656 19.94C80.3456 19.94 81.5556 19.28 82.2956 17.96V14.75C82.0156 14.11 81.5556 13.6 80.9156 13.22C80.2756 12.84 79.5256 12.65 78.6656 12.65C77.6456 12.65 76.7856 12.99 76.0856 13.67C75.3856 14.33 75.0356 15.19 75.0356 16.25ZM97.86 23.36C96.26 23.36 94.9 23.06 93.78 22.46C92.68 21.86 91.84 21.03 91.26 19.97C90.68 18.91 90.39 17.69 90.39 16.31C90.39 14.99 90.73 13.8 91.41 12.74C92.09 11.68 93 10.84 94.14 10.22C95.28 9.58 96.55 9.26 97.95 9.26C99.83 9.26 101.37 9.81 102.57 10.91C103.79 11.99 104.58 13.56 104.94 15.62L95.34 18.68C95.98 19.42 96.85 19.79 97.95 19.79C98.41 19.79 98.85 19.71 99.27 19.55C99.71 19.39 100.14 19.18 100.56 18.92L102.42 22.04C101.72 22.44 100.96 22.76 100.14 23C99.34 23.24 98.58 23.36 97.86 23.36ZM94.53 16.07C94.53 16.17 94.53 16.26 94.53 16.34L100.29 14.39C100.11 13.89 99.82 13.46 99.42 13.1C99.02 12.72 98.42 12.53 97.62 12.53C96.68 12.53 95.93 12.85 95.37 13.49C94.81 14.13 94.53 14.99 94.53 16.07Z" fill="#56597A"/>
</svg>
