<?xml version="1.0" encoding="utf-8"?><svg viewBox="0 0 106 32" xmlns="http://www.w3.org/2000/svg" xmlns:xlink="http://www.w3.org/1999/xlink"><style>:root>svg{display:none}:root>svg:target{display:block}</style><svg fill="none" viewBox="0 0 24 24" id="Menu" xmlns="http://www.w3.org/2000/svg"><path d="M4 18h16M4 6h16H4zm0 6h16H4z" stroke="#AAAAAB" stroke-width="2" stroke-linecap="round" stroke-linejoin="round"/></svg><svg fill="none" viewBox="0 0 44 32" id="arrows" xmlns="http://www.w3.org/2000/svg"><rect x="12.75" y=".75" width="30.5" height="30.5" rx="1.25" fill="#FFC1DA" fill-opacity=".28" stroke="#fff" stroke-width="1.5"/><path d="M1 15.158a1 1 0 100 2v-2zm29 1l.686.727a1 1 0 00-.039-1.49l-.647.763zm-7.936 6.115a1 1 0 001.372 1.454l-1.372-1.454zm1.333-13.035a1 1 0 00-1.294 1.524l1.294-1.524zM1 17.158h29v-2H1v2zm28.314-1.727l-7.25 6.842 1.372 1.454 7.25-6.842-1.372-1.454zm1.333-.035l-7.25-6.158-1.294 1.524 7.25 6.158 1.294-1.524z" fill="#fff"/></svg><svg fill="none" viewBox="0 0 7 13" id="arrows-right" xmlns="http://www.w3.org/2000/svg"><path d="M7 6.697L0 0v13l7-6.303z" fill="#fff"/></svg><svg fill="none" viewBox="0 0 16 16" id="copy" xmlns="http://www.w3.org/2000/svg"><path d="M8 1.5A6.508 6.508 0 001.5 8c0 3.584 2.916 6.5 6.5 6.5s6.5-2.916 6.5-6.5S11.584 1.5 8 1.5zm0 1c3.043 0 5.5 2.457 5.5 5.5s-2.457 5.5-5.5 5.5A5.493 5.493 0 012.5 8c0-3.043 2.457-5.5 5.5-5.5zM7.953 5c-1.662 0-3 1.338-3 3s1.338 3 3 3c1.2 0 2.225-.719 2.703-1.735l-.906-.421A1.979 1.979 0 017.953 10c-1.139 0-2-.861-2-2 0-1.138.861-2 2-2 .801 0 1.475.47 1.797 1.157l.906-.423C10.178 5.72 9.152 5 7.952 5h.001z" fill="#fff"/></svg><svg fill="none" viewBox="0 0 106 30" id="logo" xmlns="http://www.w3.org/2000/svg"><path d="M2.85 23V.02h.03l11.19 15.87L25.53.02h.06V23h-4.35V12.47l-7.2 10.23h-.06l-6.93-9.57V23h-4.2zM31.207 9.89h4.2V23h-4.2V9.89zm-.09-4.65c0-.62.24-1.13.72-1.53.5-.4 1.03-.6 1.59-.6s1.07.2 1.53.6c.48.4.72.91.72 1.53s-.24 1.13-.72 1.53c-.46.38-.97.57-1.53.57s-1.09-.19-1.59-.57c-.48-.4-.72-.91-.72-1.53z" fill="#F087B1"/><path d="M44.113 9.89l.33 3c.38-.76.9-1.41 1.56-1.95.66-.56 1.31-.98 1.95-1.26.64-.3 1.13-.45 1.47-.45l-.21 4.2c-.98-.12-1.82.04-2.52.48s-1.24 1.02-1.62 1.74c-.38.72-.57 1.46-.57 2.22V23h-4.17V9.89h3.78zm14.205 13.47c-1.22 0-2.33-.24-3.33-.72-.98-.5-1.76-1.26-2.34-2.28-.58-1.02-.87-2.32-.87-3.9 0-1.48.3-2.76.9-3.84.6-1.08 1.39-1.91 2.37-2.49.98-.6 2.02-.9 3.12-.9 1.3 0 2.28.21 2.94.63.68.42 1.22.88 1.62 1.38l.27-1.35h3.9V23h-4.2v-1.62c-.2.2-.5.46-.9.78-.38.32-.86.6-1.44.84s-1.26.36-2.04.36zm1.2-3.42c1.46 0 2.52-.66 3.18-1.98v-3.21c-.24-.64-.66-1.15-1.26-1.53-.58-.38-1.27-.57-2.07-.57-.9 0-1.68.34-2.34 1.02-.66.66-.99 1.52-.99 2.58 0 .7.16 1.33.48 1.89.32.56.74 1 1.26 1.32.54.32 1.12.48 1.74.48zm19.088 9.66c-1.18 0-2.18-.14-3-.42-.8-.28-1.48-.62-2.04-1.02s-1.06-.78-1.5-1.14l2.46-2.88c.46.42.99.82 1.59 1.2.62.4 1.43.6 2.43.6 1 0 1.87-.26 2.61-.78.76-.5 1.14-1.24 1.14-2.22v-1.86c-.38.62-.97 1.16-1.77 1.62-.8.44-1.84.66-3.12.66-1.18 0-2.28-.3-3.3-.9-1-.62-1.8-1.45-2.4-2.49-.6-1.06-.9-2.26-.9-3.6 0-1.38.32-2.6.96-3.66.64-1.08 1.47-1.93 2.49-2.55 1.02-.62 2.1-.93 3.24-.93 1.14 0 2.12.17 2.94.51.84.32 1.46.71 1.86 1.17l.33-1.02h3.87V23c0 1.28-.36 2.41-1.08 3.39-.72 1-1.68 1.78-2.88 2.34-1.18.58-2.49.87-3.93.87zm-3.57-13.35c0 1.04.35 1.92 1.05 2.64.7.7 1.56 1.05 2.58 1.05 1.68 0 2.89-.66 3.63-1.98v-3.21c-.28-.64-.74-1.15-1.38-1.53-.64-.38-1.39-.57-2.25-.57-1.02 0-1.88.34-2.58 1.02-.7.66-1.05 1.52-1.05 2.58zm22.824 7.11c-1.6 0-2.96-.3-4.08-.9-1.1-.6-1.94-1.43-2.52-2.49-.58-1.06-.87-2.28-.87-3.66 0-1.32.34-2.51 1.02-3.57a7.36 7.36 0 012.73-2.52c1.14-.64 2.41-.96 3.81-.96 1.88 0 3.42.55 4.62 1.65 1.22 1.08 2.01 2.65 2.37 4.71l-9.6 3.06c.64.74 1.51 1.11 2.61 1.11.46 0 .9-.08 1.32-.24.44-.16.87-.37 1.29-.63l1.86 3.12c-.7.4-1.46.72-2.28.96-.8.24-1.56.36-2.28.36zm-3.33-7.29v.27l5.76-1.95c-.18-.5-.47-.93-.87-1.29-.4-.38-1-.57-1.8-.57-.94 0-1.69.32-2.25.96-.56.64-.84 1.5-.84 2.58z" fill="#56597A"/></svg><svg fill="none" viewBox="0 0 18 19" id="slider-left" xmlns="http://www.w3.org/2000/svg"><path fill-rule="evenodd" clip-rule="evenodd" d="M6.586 5.517a.597.597 0 01.165.42.622.622 0 01-.165.421L3.608 9.5l2.978 3.142a.598.598 0 01.165.42.623.623 0 01-.165.421.563.563 0 01-.398.174.539.539 0 01-.399-.174L2.414 9.921a.597.597 0 01-.165-.42.622.622 0 01.165-.421L5.79 5.517a.562.562 0 01.399-.174.537.537 0 01.398.174z" fill="#56597A"/><path fill-rule="evenodd" clip-rule="evenodd" d="M2.813 9.5a.61.61 0 01.164-.42.548.548 0 01.398-.174h11.813c.149 0 .292.063.397.174a.61.61 0 01.165.42.61.61 0 01-.165.42.548.548 0 01-.398.174H3.376a.548.548 0 01-.398-.174.61.61 0 01-.164-.42z" fill="#56597A"/></svg><svg fill="none" viewBox="0 0 25 25" id="slider-right" xmlns="http://www.w3.org/2000/svg"><path fill-rule="evenodd" clip-rule="evenodd" d="M15.853 7.26a.78.78 0 011.106 0l4.688 4.687a.78.78 0 010 1.106l-4.688 4.688a.782.782 0 01-1.106-1.106L19.99 12.5l-4.136-4.134a.78.78 0 010-1.106z" fill="#56597A"/><path fill-rule="evenodd" clip-rule="evenodd" d="M3.125 12.5a.781.781 0 01.781-.781h16.407a.781.781 0 110 1.563H3.905a.781.781 0 01-.781-.782z" fill="#56597A"/></svg></svg>