<svg width="18" height="19" viewBox="0 0 18 19" fill="none" xmlns="http://www.w3.org/2000/svg">
<path fill-rule="evenodd" clip-rule="evenodd" d="M6.58578 5.51733C6.63816 5.57249 6.67972 5.63801 6.70808 5.71014C6.73644 5.78228 6.75103 5.85961 6.75103 5.93771C6.75103 6.01581 6.73644 6.09314 6.70808 6.16527C6.67972 6.23741 6.63816 6.30293 6.58578 6.35808L3.6079 9.50021L6.58578 12.6423C6.63808 12.6975 6.67956 12.7631 6.70787 12.8352C6.73617 12.9073 6.75074 12.9846 6.75074 13.0627C6.75074 13.1408 6.73617 13.2181 6.70787 13.2902C6.67956 13.3623 6.63808 13.4279 6.58578 13.4831C6.53348 13.5383 6.47139 13.5821 6.40306 13.612C6.33473 13.6418 6.26149 13.6572 6.18753 13.6572C6.11357 13.6572 6.04033 13.6418 5.972 13.612C5.90367 13.5821 5.84158 13.5383 5.78928 13.4831L2.41428 9.92058C2.3619 9.86543 2.32033 9.79991 2.29198 9.72777C2.26362 9.65564 2.24902 9.57831 2.24902 9.50021C2.24902 9.42211 2.26362 9.34478 2.29198 9.27264C2.32033 9.20051 2.3619 9.13499 2.41428 9.07983L5.78928 5.51733C5.84153 5.46204 5.9036 5.41817 5.97194 5.38824C6.04028 5.3583 6.11354 5.3429 6.18753 5.3429C6.26152 5.3429 6.33478 5.3583 6.40312 5.38824C6.47146 5.41817 6.53353 5.46204 6.58578 5.51733Z" fill="#56597A"/>
<path fill-rule="evenodd" clip-rule="evenodd" d="M2.8125 9.50024C2.8125 9.34277 2.87176 9.19175 2.97725 9.0804C3.08274 8.96905 3.22582 8.90649 3.375 8.90649H15.1875C15.3367 8.90649 15.4798 8.96905 15.5852 9.0804C15.6907 9.19175 15.75 9.34277 15.75 9.50024C15.75 9.65772 15.6907 9.80874 15.5852 9.92009C15.4798 10.0314 15.3367 10.094 15.1875 10.094H3.375C3.22582 10.094 3.08274 10.0314 2.97725 9.92009C2.87176 9.80874 2.8125 9.65772 2.8125 9.50024Z" fill="#56597A"/>
</svg>
